<svg xmlns="http://www.w3.org/2000/svg" viewBox="0 0 24 24">
	<defs>
		<clipPath id="clip-1">
			<rect x="0" y="0" width="300" height="291.73789" fill="none" />
		</clipPath>
	</defs>
	<g transform="translate(0 0.33048) scale(0.08)" clip-path="url(#clip-1)">
		<path
			d="M220.54688,16.03401l0.79102,-0.0041c3.82471,-0.00952 8.52979,-0.1034 12.24902,0.41535c10.58936,1.46001 21.51416,8.80706 26.46826,18.3688c2.72168,5.25597 5.18115,11.70847 7.49121,17.22674l10.75342,25.36816l8.44629,19.91697c3.41016,8.03568 6.6709,14.37864 6.04834,23.40552c-0.3457,5.01285 -1.58643,9.25155 -2.78613,14.07401l-3.30908,13.20905l-10.00342,39.78004l-10.49121,41.91975l-3.00732,11.91263c-0.74854,3.00086 -1.42969,6.18918 -2.49756,9.07434c-1.99365,5.36464 -5.13721,10.22694 -9.21094,14.24712c-5.68945,5.6678 -12.49658,9.45512 -20.4126,11.00608c-3.91846,0.76889 -7.30518,0.65758 -11.27637,0.67809c-3.48779,0.04247 -6.97559,0.0454 -10.46484,0.01025l-24.72217,-0.01904l-105.91406,-0.01172c-1.1439,-0.00293 -2.37363,-0.04833 -3.48867,-0.01757c-12.66504,0.30023 -24.25371,-5.76007 -31.87837,-15.71753c-4.96626,-6.48502 -6.40679,-12.43547 -8.25923,-20.12874c-0.84316,-3.46951 -1.70581,-6.93317 -2.58809,-10.39243l-10.3771,-41.66052l-11.10508,-44.28895l-2.79615,-11.31671c-1.16158,-4.72858 -2.43709,-9.23807 -2.50529,-14.16994c-0.1239,-8.95864 3.9508,-16.80583 7.43071,-24.84971l8.46546,-19.92649l9.62754,-22.68086c1.98589,-4.77208 4.71328,-11.85844 7.06831,-16.36105c1.5813,-3.06501 3.61553,-5.8743 6.03428,-8.33313c4.84482,-4.91458 12.81401,-9.15811 19.59346,-10.17612c5.18203,-0.77811 13.28789,-0.55667 18.69727,-0.51728l24.60864,0.01216l70.95718,-0.0246c14.00244,0.01318 28.37256,0.14558 42.36328,-0.02856z"
			fill="#0361ed"
		/>
		<path
			d="M75.70063,34.6304l102.25884,0.02519l30.81006,-0.006l9.56543,-0.01201c1.78711,-0.00117 4.70068,-0.07996 6.38818,0.13357c4.93213,0.62404 9.7251,3.60703 12.81299,7.40226c1.08252,1.34299 1.97754,2.8279 2.66016,4.41341c1.13818,2.61451 2.42578,6.47271 3.47021,9.26605l7.35498,19.73332l7.53955,20.18073c1.56006,4.12651 3.16699,8.30252 4.63477,12.42639c1.7168,4.82334 -1.47656,7.4216 -6.06445,7.22447c-2.93262,-0.1261 -6.1875,-0.02973 -9.12305,-0.02988l-34.26123,0.01289l-9.99902,-0.02021c-2.51514,-0.0063 -6.33398,-0.42296 -8.32031,1.16153c-2.58398,2.06033 -2.25293,7.58636 -2.46094,10.79533l-1.00049,15.22441l-3.55811,53.37266c-0.21094,5.21818 -0.75879,10.50374 -1.01953,15.72631c-0.11279,2.26712 -0.26221,5.06587 -0.83496,7.22315c-0.58008,2.20122 -1.61719,4.25451 -3.04541,6.02808c-2.49316,3.06823 -6.10986,5.01168 -10.0459,5.39539c-2.36719,0.22261 -6.87158,0.09959 -9.41309,0.09959l-17.39502,-0.00293l-14.08037,0.01318c-2.31182,0.00146 -6.33135,0.11423 -8.41465,-0.22408c-2.65034,-0.43204 -5.13853,-1.55974 -7.21128,-3.26741c-5.87417,-4.92234 -5.54165,-11.32388 -5.99048,-18.24533l-1.06567,-16.16861l-3.18384,-46.83462l-1.00239,-15.37936c-1.03931,-16.82487 0.02505,-14.9088 -16.80879,-14.90441l-33.68701,-0.01069l-10.073,0.02299c-1.91719,0.0063 -3.83188,0.05346 -5.73032,-0.0662c-2.5333,-0.15949 -4.43057,-2.05461 -4.54687,-4.59326c-0.03896,-0.84973 0.13359,-1.64747 0.41807,-2.44506c1.102,-3.08961 2.30596,-6.14319 3.44883,-9.21845l7.80073,-20.94186l7.40713,-19.91463c1.34033,-3.62373 2.93086,-8.33225 4.44053,-11.8126c0.78706,-1.79158 1.85332,-3.44725 3.15908,-4.90506c3.70034,-4.20808 8.60771,-6.52983 14.16665,-6.87825z"
			fill="#fefefe"
		/>
	</g>
</svg>
