<svg xmlns="http://www.w3.org/2000/svg" viewBox="0 0 24 24">
	<defs>
		<clipPath id="clip-1">
			<rect x="0" y="0" width="300" height="291.86747" fill="none" />
		</clipPath>
	</defs>
	<g transform="translate(0 0.3253) scale(0.08)" clip-path="url(#clip-1)">
		<path d="M0,0h300v291.86747h-300z" fill="#216df7" />
		<path
			d="M67.7058,16.13383c1.98343,-0.23413 6.40821,-0.12809 8.53328,-0.12499l15.50286,0.0197l52.07078,-0.00124l58.52078,-0.00836l18.05354,-0.00836c3.39623,0.00002 7.96988,-0.12522 11.24096,0.22968c5.8622,0.66906 11.48042,2.72431 16.38931,5.99562c4.26054,2.81955 7.85467,6.53544 10.53163,10.88792c2.60919,4.2994 4.85693,10.2052 6.85843,14.94646l9.34563,22.14691l9.84262,23.26514c5.15964,12.1753 9.83133,20.98125 6.25301,34.52959c-1.54518,5.84706 -2.98419,12.03727 -4.45934,17.92229l-9.53765,38.12508l-10.80497,43.23818c-1.86596,7.47063 -3.70256,15.16265 -5.7628,22.57003c-0.7003,2.51657 -3.42922,7.74398 -4.92696,9.8878c-6.16265,8.82154 -14.8622,14.23645 -25.33509,16.25151c-0.8991,0.14684 -1.80045,0.26431 -2.70858,0.35467c-4.02041,0.3863 -8.6616,0.27334 -12.7491,0.27108l-18.46875,-0.0113c-18.8756,0.13554 -37.75188,0.1762 -56.62771,0.12199l-44.33268,-0.11747l-13.45956,0.01355c-4.27319,0.00904 -8.63901,0.11973 -12.86815,-0.52861c-6.87086,-1.10467 -13.32425,-4.01657 -18.6994,-8.4375c-7.48238,-6.19654 -11.46619,-13.73946 -13.63035,-23.0512c-1.22914,-5.29066 -2.64962,-10.65587 -3.96958,-15.93298l-10.88015,-43.49051l-9.88816,-39.69714c-2.26875,-9.02056 -5.75327,-19.58133 -5.5615,-28.82123c0.14575,-7.02312 3.62948,-14.17206 6.33506,-20.57982l8.17622,-19.35384l11.10468,-26.26084c2.74992,-6.49654 6.10346,-15.9637 10.5113,-21.34857c6.40617,-7.82627 15.31694,-12.12459 25.40038,-13.00322z"
			fill="#ffffff"
		/>
		<path
			d="M79.7442,34.44804l96.83788,0.00836l30.01988,-0.00565c4.67259,-0.0009 12.02259,-0.22703 16.43675,0.16084c2.93494,0.26386 5.77907,1.16476 8.32952,2.64014c3.09036,1.75482 5.66114,4.29375 7.45482,7.36017c1.54066,2.67176 3.5241,8.46755 4.67395,11.5552l7.24473,19.49639l8.25,22.08795c1.36898,3.6637 3.58057,9.10414 4.54066,12.73803c-0.39307,1.61476 -1.51807,4.23479 -3.14232,4.62018c-3.58057,0.85053 -9.8991,0.54601 -13.56099,0.54262l-32.94217,-0.00361c-5.16867,-0.00023 -10.47786,-0.16468 -15.56611,0.0881c-3.37364,0.16762 -4.71551,2.07244 -5.05324,5.16416c-0.33208,3.04179 -0.48863,6.15023 -0.68223,9.1823l-1.08072,16.19029l-3.59819,53.81069c-1.21017,11.55068 1.50271,26.91732 -13.5244,30.19066c-3.04902,0.6619 -7.10986,0.39759 -10.28652,0.38855l-15.08336,-0.0384l-15.08855,0.04518c-6.35128,0.02033 -11.60896,0.68901 -16.92176,-3.60768c-2.56965,-2.11581 -4.37756,-5.01325 -5.14812,-8.25113c-0.64721,-2.69255 -0.89729,-8.78449 -1.06762,-11.70881l-0.94676,-14.19759l-3.20512,-47.69232c-0.52816,-7.81288 -1.03396,-15.64066 -1.57297,-23.45264c-0.4369,-6.3323 -3.78727,-6.16378 -9.08968,-6.15248c-2.60015,0.00565 -5.32093,0.03976 -7.93215,0.04044l-31.7503,0.00813c-4.70806,0.00678 -9.46401,-0.02123 -14.19352,-0.00881c-5.48607,0.01468 -8.51973,-2.27666 -6.50309,-8.04917c1.16657,-3.33886 2.46483,-6.74503 3.71273,-10.08773l7.56958,-20.20595l7.17605,-19.3744c5.38373,-14.51905 7.69721,-23.19239 25.69337,-23.482z"
			fill="#216df7"
		/>
	</g>
</svg>
